# xmcd CD database file
#
# Track frame offsets:
#	150
#	14996
#	26999
#	37891
#	53594
#	64266
#	75274
#	80797
#	88324
#	103041
#	113552
#	121571
#	134883
#	143635
#	156242
#	164625
#	175521
#	185374
#	196456
#	203037
#	212136
#	221223
#	228823
#	240902
#	251781
#	260547
#
# Disc length: 3623 seconds
#
# Revision: 0
# Processed by: cddbd v1.5.2PL0 Copyright (c) Steve Scherf et al.
# Submitted via: CDex 1.70beta2
#
DISCID=740e251a
DTITLE=Dawson, Dave - Cdn.- ON - OVM - The Big Race Is On and Other Railroad Songs
DYEAR=2003
DGENRE=Country
TTITLE0=The Big Race Is On
TTITLE1=Fireball Mail
TTITLE2=Jewrry, Go Oil That Car
TTITLE3=Wreck of the Southern 97
TTITLE4=Way Out There
TTITLE5=Night Train To Memphis
TTITLE6=Waitin' For You
TTITLE7=I Don't Mind
TTITLE8=A Headin' back Home
TTITLE9=Wreck of the 1262
TTITLE10=Dixie Cannonball
TTITLE11=era of Steam
TTITLE12=Train Whistle Blues
TTITLE13=Bluw Yodel No.7
TTITLE14=Old Log Train
TTITLE15=A Meaning of Life
TTITLE16=Blue Yodel No.6
TTITLE17=Mule Skinner Blues
TTITLE18=Pan American
TTITLE19=Hard Travelin'
TTITLE20=Rough and Rowdy Ways
TTITLE21=Jimmie's Mean Momma Blues
TTITLE22=Side Track
TTITLE23=Song of the Hobo
TTITLE24=One More Ride
TTITLE25=Hobo's Intuition
EXTD=YEAR: 2003
EXTT0=
EXTT1=
EXTT2=
EXTT3=
EXTT4=
EXTT5=
EXTT6=
EXTT7=
EXTT8=
EXTT9=
EXTT10=
EXTT11=
EXTT12=
EXTT13=
EXTT14=
EXTT15=
EXTT16=
EXTT17=
EXTT18=
EXTT19=
EXTT20=
EXTT21=
EXTT22=
EXTT23=
EXTT24=
EXTT25=
PLAYORDER=
